<!--
  Credit: Original Rook SVG from Wikimedia Commons:
  https://commons.wikimedia.org/wiki/Category:SVG_chess_pieces
  By en:User:Cburnett - Own work.
  Licensed under CC BY-SA 3.0 (https://creativecommons.org/licenses/by-sa/3.0/).
  This W3C-unspecified vector image was created with Inkscape.
-->
<svg
  xmlns="http://www.w3.org/2000/svg"
  version="1.1"
  width="35"
  height="35"
  viewBox="7 4 30 35"
  fill="none"
>
  <rect width="45" height="45" fill="#0d0d0d" />

  <g
    opacity="1"
    fill="#ffffff"
    fill-opacity="1"
    fill-rule="evenodd"
    stroke="#000000"
    stroke-width="1.5"
    stroke-linecap="round"
    stroke-linejoin="round"
    stroke-miterlimit="4"
    stroke-dasharray="none"
    stroke-opacity="1"
  >
    <path d="M 9,37 L 36,37 L 36,34 L 9,34 L 9,37 z" stroke-linecap="butt" />
    <path d="M 12,34 L 12,30 L 33,30 L 33,34 L 12,34 z" stroke-linecap="butt" />
    <path
      d="M 11,12 L 11,7 L 15,7 L 15,9 L 20,9 L 20,7 L 25,7 L 25,9 L 30,9 L 30,7 L 34,7 L 34,12"
      stroke-linecap="butt"
    />
    <path d="M 34,12 L 31,16 L 14,16 L 11,12" />
    <path
      d="M 31,16 L 31,28 L 14,28 L 14,16"
      stroke-linecap="butt"
      stroke-linejoin="miter"
    />
    <path d="M 31,28 L 32.5,30 L 12.5,30 L 14,28" />
    <path
      d="M 11,12 L 34,12"
      fill="none"
      stroke="#000000"
      stroke-linejoin="miter"
    />
  </g>
</svg>
